<mxfile host="app.diagrams.net" agent="Mozilla/5.0 (Windows NT 10.0; Win64; x64) AppleWebKit/537.36 (KHTML, like Gecko) Chrome/133.0.0.0 Safari/537.36" version="26.1.0">
  <diagram name="PÃ¡gina-1" id="rdAxSH3M0ermWyl3M0d5">
    <mxGraphModel dx="794" dy="446" grid="1" gridSize="10" guides="1" tooltips="1" connect="1" arrows="1" fold="1" page="1" pageScale="1" pageWidth="827" pageHeight="1169" math="0" shadow="0">
      <root>
        <mxCell id="0" />
        <mxCell id="1" parent="0" />
        <mxCell id="jtijbhO7NfHQTMNERxrE-1" value="+nombre&lt;div&gt;+editorial&lt;/div&gt;&lt;div&gt;+precio&lt;/div&gt;&lt;div&gt;+fechasalida&lt;/div&gt;&lt;div&gt;-codigoreferencia&lt;/div&gt;&lt;div&gt;&lt;br&gt;&lt;/div&gt;&lt;div&gt;&lt;br&gt;&lt;/div&gt;&lt;div&gt;&lt;br&gt;&lt;/div&gt;&lt;div&gt;&lt;br&gt;&lt;/div&gt;" style="rounded=0;whiteSpace=wrap;html=1;" vertex="1" parent="1">
          <mxGeometry x="80" y="100" width="130" height="180" as="geometry" />
        </mxCell>
        <mxCell id="jtijbhO7NfHQTMNERxrE-2" value="libros" style="rounded=0;whiteSpace=wrap;html=1;" vertex="1" parent="1">
          <mxGeometry x="80" y="50" width="130" height="50" as="geometry" />
        </mxCell>
        <mxCell id="jtijbhO7NfHQTMNERxrE-4" value="Nombre+&lt;div&gt;apellido+&lt;/div&gt;&lt;div&gt;email-&lt;/div&gt;&lt;div&gt;dni-&lt;/div&gt;&lt;div&gt;&lt;br&gt;&lt;/div&gt;&lt;div&gt;&lt;div&gt;&lt;br&gt;&lt;/div&gt;&lt;/div&gt;" style="rounded=0;whiteSpace=wrap;html=1;" vertex="1" parent="1">
          <mxGeometry x="320" y="80" width="150" height="180" as="geometry" />
        </mxCell>
        <mxCell id="jtijbhO7NfHQTMNERxrE-5" value="Usuario" style="rounded=0;whiteSpace=wrap;html=1;" vertex="1" parent="1">
          <mxGeometry x="320" y="20" width="150" height="60" as="geometry" />
        </mxCell>
        <mxCell id="jtijbhO7NfHQTMNERxrE-6" value="" style="rounded=0;whiteSpace=wrap;html=1;" vertex="1" parent="1">
          <mxGeometry x="560" y="80" width="160" height="180" as="geometry" />
        </mxCell>
        <mxCell id="jtijbhO7NfHQTMNERxrE-7" value="prestamo" style="rounded=0;whiteSpace=wrap;html=1;" vertex="1" parent="1">
          <mxGeometry x="560" y="20" width="160" height="60" as="geometry" />
        </mxCell>
        <mxCell id="jtijbhO7NfHQTMNERxrE-8" style="edgeStyle=orthogonalEdgeStyle;rounded=0;orthogonalLoop=1;jettySize=auto;html=1;exitX=0.25;exitY=1;exitDx=0;exitDy=0;" edge="1" parent="1" source="jtijbhO7NfHQTMNERxrE-7" target="jtijbhO7NfHQTMNERxrE-5">
          <mxGeometry relative="1" as="geometry">
            <Array as="points">
              <mxPoint x="630" y="80" />
              <mxPoint x="630" y="100" />
              <mxPoint x="450" y="100" />
            </Array>
          </mxGeometry>
        </mxCell>
        <mxCell id="jtijbhO7NfHQTMNERxrE-13" style="edgeStyle=orthogonalEdgeStyle;rounded=0;orthogonalLoop=1;jettySize=auto;html=1;exitX=0.538;exitY=0.5;exitDx=0;exitDy=0;exitPerimeter=0;" edge="1" parent="1" source="jtijbhO7NfHQTMNERxrE-1" target="jtijbhO7NfHQTMNERxrE-5">
          <mxGeometry relative="1" as="geometry">
            <mxPoint x="200" y="190" as="sourcePoint" />
          </mxGeometry>
        </mxCell>
      </root>
    </mxGraphModel>
  </diagram>
</mxfile>
